<svg width="316" height="226" viewBox="0 0 316 226" fill="none" xmlns="http://www.w3.org/2000/svg">
<path d="M119.511 18.8002C118.834 18.4332 116.83 17.6146 113.556 16.3866C112.103 15.8926 111.369 15.1587 111.369 14.1142C111.369 12.9709 112.512 12.0253 114.191 12.0253C116.238 12.0253 118.143 12.8439 119.878 14.4812L123.067 10.3457C120.795 7.97447 117.889 6.80298 114.375 6.80298C111.595 6.80298 109.323 7.48047 107.644 8.8919C105.964 10.3033 105.104 12.0817 105.104 14.2553C105.104 17.1629 106.515 19.3083 109.379 20.6632C109.93 20.9314 110.974 21.3972 112.569 21.99C114.163 22.5828 115.109 22.9498 115.518 23.1333C116.703 23.6837 117.296 24.4035 117.296 25.2786C117.296 26.6901 115.842 27.6922 113.881 27.6922C111.383 27.6922 108.787 26.3796 107.009 24.2342L103.594 28.285C106.091 31.4748 109.506 33.0556 113.824 33.0556C116.774 33.0556 119.187 32.3217 120.965 30.8256C122.785 29.3294 123.688 27.4099 123.688 25.0952C123.702 22.3429 122.291 20.2539 119.511 18.8002Z" fill="#190933"/>
<path d="M139.521 6.92993C135.655 6.92993 132.466 8.20022 129.968 10.7549C127.47 13.2531 126.242 16.3442 126.242 19.9857C126.242 23.6695 127.47 26.7606 129.968 29.2729C132.466 31.7711 135.655 33.0556 139.521 33.0556C143.388 33.0556 146.577 31.7853 149.075 29.2729C151.572 26.7747 152.8 23.6695 152.8 19.9857C152.8 16.3442 151.572 13.2531 149.075 10.7549C146.577 8.20022 143.388 6.92993 139.521 6.92993ZM144.39 25.0386C143.077 26.4077 141.483 27.0852 139.521 27.0852C137.56 27.0852 135.923 26.4077 134.61 25.0386C133.298 23.6272 132.649 21.9476 132.649 19.9857C132.649 18.0238 133.284 16.3442 134.61 14.9751C135.923 13.606 137.56 12.9285 139.521 12.9285C141.483 12.9285 143.063 13.606 144.39 14.9751C145.702 16.3442 146.393 18.0238 146.393 19.9857C146.393 21.9476 145.716 23.6272 144.39 25.0386Z" fill="#190933"/>
<path d="M254.275 10.741C251.777 8.1863 248.588 6.91602 244.721 6.91602C240.855 6.91602 237.666 8.1863 235.168 10.741C232.67 13.2392 231.442 16.3303 231.442 19.9718C231.442 23.6556 232.67 26.7466 235.168 29.259C237.666 31.7572 240.855 33.0416 244.721 33.0416C248.588 33.0416 251.777 31.7713 254.275 29.259C256.772 26.7608 258 23.6556 258 19.9718C258 16.3444 256.772 13.2533 254.275 10.741ZM249.59 25.0388C248.277 26.4079 246.683 27.0854 244.721 27.0854C242.76 27.0854 241.123 26.4079 239.811 25.0388C238.498 23.6274 237.849 21.9478 237.849 19.9859C237.849 18.024 238.484 16.3444 239.811 14.9753C241.123 13.6062 242.76 12.9287 244.721 12.9287C246.683 12.9287 248.263 13.6062 249.59 14.9753C250.902 16.3444 251.593 18.024 251.593 19.9859C251.593 21.9478 250.902 23.6274 249.59 25.0388Z" fill="#190933"/>
<path d="M168.732 6.97241C162.17 6.97241 156.864 12.2935 156.864 18.8567V32.4064H163.271V18.8567C163.271 15.8362 165.712 13.3944 168.732 13.3944C171.752 13.3944 174.179 15.8362 174.179 18.8567V32.4064H180.585V18.8567C180.599 12.2935 175.279 6.97241 168.732 6.97241Z" fill="#190933"/>
<path d="M197.604 6.92993C197.307 6.92993 197.025 6.94405 196.757 6.95816C193.271 7.12753 190.378 8.39782 188.064 10.7549C185.722 13.0979 184.494 15.9631 184.353 19.3223C184.339 19.5481 184.339 19.774 184.339 19.9998C184.339 20.2256 184.353 20.4515 184.353 20.6773C184.494 24.0647 185.722 26.9299 188.064 29.287C189.701 30.9243 191.62 32.0252 193.836 32.6039C195.741 33.0979 197.773 33.1261 199.65 32.5051C201.456 31.9123 203.05 30.8255 204.405 29.287C204.433 29.2588 204.448 29.2306 204.476 29.2023V31.3336V32.4204H210.882V19.9998C210.882 16.3583 209.655 13.2673 207.157 10.769C204.659 8.20022 201.47 6.92993 197.604 6.92993ZM202.472 25.0386C201.145 26.4077 199.565 27.0852 197.604 27.0852C195.642 27.0852 194.005 26.4077 192.693 25.0386C191.366 23.6272 190.731 21.9476 190.731 19.9857C190.731 18.0238 191.366 16.3442 192.693 14.9751C194.005 13.6201 195.642 12.9285 197.604 12.9285C199.565 12.9285 201.145 13.606 202.472 14.9751C203.784 16.3442 204.476 18.0238 204.476 19.9857C204.476 21.9476 203.798 23.6272 202.472 25.0386Z" fill="#190933"/>
<path d="M214.932 18.8567V32.4064H221.339V18.8567H221.325C221.339 15.8362 223.766 13.3944 226.786 13.3944H229.989V6.97241H226.786C220.238 6.97241 214.946 12.2935 214.932 18.8567Z" fill="#190933"/>
<path d="M80.3915 10.4023C75.1005 10.4023 70.7972 14.7071 70.7972 20C70.7972 21.7643 69.358 23.204 67.5944 23.204C65.8307 23.204 64.3915 21.7643 64.3915 20C64.3915 12.5053 70.4868 6.39379 77.9929 6.39379C78.642 6.39379 79.3051 6.43613 79.94 6.53493L80.8571 0.197601C79.9259 0.0564573 78.9665 0 77.9929 0C66.9735 0 58 8.97671 58 20C58 25.2929 62.3034 29.5977 67.5944 29.5977C72.8854 29.5977 77.1887 25.2929 77.1887 20C77.1887 18.2357 78.6279 16.796 80.3915 16.796C82.1552 16.796 83.5944 18.2357 83.5944 20C83.5944 27.4947 77.4991 33.6062 69.9929 33.6062C69.3439 33.6062 68.6808 33.5639 68.0459 33.4651L67.1429 39.8024C68.0741 39.9435 69.0335 40 70.0071 40C81.0265 40 90 31.0233 90 20C90 14.7071 85.6966 10.4023 80.3915 10.4023Z" fill="url(#paint0_linear_9_63)"/>
<path d="M242.755 198.845H271.644V214.432H221.063V199.825L249.657 160.807H221.063V145.318H271.644V159.925L242.755 198.845Z" fill="#190933"/>
<path d="M210.649 145.318V214.432H191.324V145.318H210.649Z" fill="#190933"/>
<path d="M140.061 145.318V185.414C140.061 189.139 140.916 192.015 142.625 194.041C144.4 196.067 147.062 197.08 150.611 197.08C154.161 197.08 156.823 196.067 158.598 194.041C160.438 191.949 161.359 189.074 161.359 185.414V145.318H180.684V185.414C180.684 191.753 179.336 197.178 176.641 201.688C173.946 206.132 170.265 209.498 165.598 211.785C160.997 214.007 155.87 215.118 150.217 215.118C144.564 215.118 139.502 214.007 135.033 211.785C130.629 209.498 127.145 206.132 124.581 201.688C122.083 197.243 120.834 191.819 120.834 185.414V145.318H140.061Z" fill="#190933"/>
<path d="M91.0492 226L83.3585 214.53C81.1893 214.922 78.9873 215.118 76.7524 215.118C70.2448 215.118 64.2632 213.615 58.8074 210.609C53.3516 207.537 49.0132 203.321 45.7923 197.962C42.6372 192.538 41.0596 186.427 41.0596 179.63C41.0596 172.833 42.6372 166.755 45.7923 161.395C49.0132 155.971 53.3516 151.755 58.8074 148.749C64.2632 145.743 70.2448 144.24 76.7524 144.24C83.3256 144.24 89.3073 145.743 94.6973 148.749C100.153 151.755 104.459 155.971 107.614 161.395C110.769 166.755 112.347 172.833 112.347 179.63C112.347 185.316 111.196 190.577 108.896 195.413C106.595 200.184 103.44 204.171 99.4301 207.373L114.121 226H91.0492ZM60.7793 179.63C60.7793 185.054 62.1926 189.368 65.0191 192.57C67.8456 195.707 71.7567 197.276 76.7524 197.276C81.6823 197.276 85.5605 195.675 88.387 192.472C91.2792 189.27 92.7254 184.989 92.7254 179.63C92.7254 174.14 91.2792 169.826 88.387 166.689C85.5605 163.487 81.6823 161.886 76.7524 161.886C71.7567 161.886 67.8456 163.487 65.0191 166.689C62.1926 169.826 60.7793 174.14 60.7793 179.63Z" fill="#190933"/>
<path d="M290.857 80.0776V91.3516H313.042V105.959H290.857V118.409H316V133.8H271.532V64.6863H316V80.0776H290.857Z" fill="#190933"/>
<path d="M241.278 87.4302C240.161 85.6002 238.616 84.195 236.644 83.2147C234.738 82.2344 232.47 81.7442 229.841 81.7442C224.977 81.7442 221.131 83.3127 218.305 86.4498C215.544 89.5869 214.164 93.8024 214.164 99.0962C214.164 105.044 215.643 109.586 218.601 112.723C221.624 115.795 225.996 117.331 231.714 117.331C238.485 117.331 243.316 114.292 246.208 108.213H226.784V94.3906H262.871V113.017C261.36 116.677 259.125 120.108 256.167 123.311C253.275 126.513 249.594 129.16 245.124 131.251C240.654 133.277 235.56 134.29 229.841 134.29C222.873 134.29 216.694 132.82 211.304 129.879C205.98 126.873 201.839 122.722 198.881 117.429C195.989 112.069 194.542 105.959 194.542 99.0962C194.542 92.2992 195.989 86.2538 198.881 80.9599C201.839 75.6007 205.98 71.4506 211.304 68.5096C216.629 65.5032 222.775 64 229.742 64C238.485 64 245.715 66.0914 251.434 70.2742C257.153 74.457 260.702 80.1756 262.083 87.4302H241.278Z" fill="#190933"/>
<path d="M166.453 122.526H141.804L138.057 133.8H117.746L143.085 64.6863H165.369L190.61 133.8H170.2L166.453 122.526ZM161.622 107.821L154.129 85.4695L146.734 107.821H161.622Z" fill="#190933"/>
<path d="M111.478 64.6863V133.8H92.1522V95.6651L79.0385 133.8H62.8683L49.6561 95.371V133.8H30.3307V64.6863H53.6986L71.1506 109.586L88.2082 64.6863H111.478Z" fill="#190933"/>
<path d="M19.3254 64.6863V133.8H0V64.6863H19.3254Z" fill="#190933"/>
<defs>
<linearGradient id="paint0_linear_9_63" x1="71.1373" y1="40.3668" x2="76.8627" y2="-0.35727" gradientUnits="userSpaceOnUse">
<stop stop-color="#00B5B7"/>
<stop offset="1" stop-color="#16E2C5"/>
</linearGradient>
</defs>
</svg>
